# xmcd
#
# Track frame offsets:
# 150
# 16032
# 33132
# 50257
# 67257
# 84232
# 98870
# 125370
# 142108
# 167307
# 185305
# 199394
# 216394
# 238894
# 255508
# 271095
# 287570
# 304433
# 319070
# 336144
#
# Disc length: 4712 seconds
#
#
# Revision: 3
# Processed by: cddbd v1.4PL0 Copyright (c) Steve Scherf et al.
# Submitted via: FreeRIP 2.40 
#
DISCID=1f126614
DTITLE=DREAM DANCE VOL. 13 [CD 2]
DYEAR=1900
DGENRE=
TTITLE0=DR. MOTTE AND WESTBAM - MUSIC IS THE KEY (LOVE PARADE 99) (Short)
TTITLE1=LOVESTERN GALAKTIKA PROJECT MEETS LE PETIT SAM - LOVESTERN GALAKTIKA (Brandenburger Tor Mix)
TTITLE2=COSMIC GATE - THE DRUMS (Radio Mix)
TTITLE3=DJ SANDY VS HOUSETRAP - OVERDRIVE (Radio Edit)
TTITLE4=TOM WAX and JAN JACARTA PRESENTS NO UFOS - THE WEEKEND OF LOVE (Radio Cut)
TTITLE5=HYPERTROPHY - PULLOVER (Single Cut)
TTITLE6=METEOR SEVEN - FANTASY TO REALITY (Sunbeam Remix)
TTITLE7=MELLOW TRAX - MYSTERY IN SPACE (Kick In Ya Face Short Cut)
TTITLE8=DJ SAKIN and FRIENDS - DRAGONFLY (Taucher's Counting Remix)
TTITLE9=E.F.O. (ELECTRIC FRUIT ORCHESTRA) - NEXUS 6 (Radio Mix)
TTITLE10=PULSEDRIVER - DARKSIDE OF LIFE (Single Version)
TTITLE11=DOC IN THE BOX - SEVEN STEPS (Single Cut)
TTITLE12=RESISTANCE D. - FEEL SO HIGH (Der Dritte Raum Remix)
TTITLE13=LEGEND B - SEXUALITY (Radio Fear Rmx)
TTITLE14=MOSQUITO HEADZ - FUEGO (Spanish Fly Radio Mix)
TTITLE15=MISS SHIVA - ULTIMATE TEMPTATION (Single Cut)
TTITLE16=UP-SERVER - MOOD SWINGS (Edit)
TTITLE17=CERES - EASE YOUR MIND (Kay Cee Radio Edit)
TTITLE18=OPUS 808 FEAT. TAOME - DON'T TURN AWAY (Radio Mix)
TTITLE19=STAY-C PATON - BLUE (Radio Mix)
EXTD=
EXTT0=
EXTT1=
EXTT2=
EXTT3=
EXTT4=
EXTT5=
EXTT6=
EXTT7=
EXTT8=
EXTT9=
EXTT10=
EXTT11=
EXTT12=
EXTT13=
EXTT14=
EXTT15=
EXTT16=
EXTT17=
EXTT18=
EXTT19=
PLAYORDER=
